<svg xmlns="http://www.w3.org/2000/svg" viewBox="0 0 512 512" width="512" height="512">
  <defs>
    <linearGradient id="grad1" x1="0%" y1="0%" x2="100%" y2="100%">
      <stop offset="0%" style="stop-color:#0284c7;stop-opacity:1" />
      <stop offset="100%" style="stop-color:#0f172a;stop-opacity:1" />
    </linearGradient>
    <linearGradient id="sunGrad" x1="0%" y1="0%" x2="100%" y2="100%">
      <stop offset="0%" style="stop-color:#f59e0b;stop-opacity:1" />
      <stop offset="100%" style="stop-color:#ea580c;stop-opacity:1" />
    </linearGradient>
  </defs>
  <rect width="512" height="512" rx="110" fill="url(#grad1)" />
  <!-- Sun -->
  <circle cx="340" cy="180" r="75" fill="url(#sunGrad)" />
  <!-- Cloud -->
  <path d="M380 340 H180 C135 340 100 305 100 260 C100 218 132 184 173 180 C190 135 235 105 285 105 C345 105 395 150 400 208 C435 215 460 245 460 280 C460 315 425 340 380 340 Z" fill="#ffffff" opacity="0.95" />
  <!-- Raindrops -->
  <path d="M210 375 L195 405" stroke="#38bdf8" stroke-width="12" stroke-linecap="round" />
  <path d="M260 375 L245 405" stroke="#38bdf8" stroke-width="12" stroke-linecap="round" />
  <path d="M310 375 L295 405" stroke="#38bdf8" stroke-width="12" stroke-linecap="round" />
</svg>
